<svg xmlns="http://www.w3.org/2000/svg" xmlns:xlink="http://www.w3.org/1999/xlink" xmlns:fi="http://pattern.flaticon.com/" x="0" y="0" width="900" height="450" viewBox="0 0 2100 1050"><rect x="0px" y="0px" width="100%" height="100%" opacity="1" fill="#deff00"/><defs><g transform="matrix(0.1967206597328186 0 0 0.1967206597328186 236.9999953173176 26)" id="L1_57"><path d="M150.99,56.513c-14.093,9.912-30.066,21.147-38.624,39.734c-14.865,32.426,30.418,67.798,32.353,69.288   c0.45,0.347,0.988,0.519,1.525,0.519c0.57,0,1.141-0.195,1.605-0.583c0.899-0.752,1.154-2.029,0.614-3.069   c-0.164-0.316-16.418-31.888-15.814-54.539c0.214-7.888,11.254-16.837,22.942-26.312c10.705-8.678,22.839-18.514,29.939-30.02   c15.586-25.327-1.737-50.231-1.914-50.479c-0.688-0.966-1.958-1.317-3.044-0.84c-1.085,0.478-1.686,1.652-1.438,2.811   c0.035,0.164,3.404,16.633-5.97,33.6C169.301,43.634,160.816,49.603,150.99,56.513z" id="XMLID_8_"/><path d="M210.365,67.682c0.994-0.749,1.286-2.115,0.684-3.205c-0.602-1.09-1.913-1.571-3.077-1.129   c-2.394,0.91-58.627,22.585-58.627,48.776c0,18.053,7.712,27.591,13.343,34.556c2.209,2.731,4.116,5.09,4.744,7.104   c1.769,5.804-2.422,16.294-4.184,19.846c-0.508,1.022-0.259,2.259,0.605,3.005c0.467,0.403,1.05,0.607,1.634,0.607   c0.497,0,0.996-0.148,1.427-0.448c0.967-0.673,23.63-16.696,19.565-36.001c-1.514-7.337-5.12-12.699-8.302-17.43   c-4.929-7.329-8.489-12.624-3.088-22.403C181.419,89.556,210.076,67.899,210.365,67.682z" id="XMLID_9_"/><path d="M63.99,177.659c-0.964,2.885-0.509,5.75,1.315,8.283c6.096,8.462,27.688,13.123,60.802,13.123   c0.002,0,0.003,0,0.004,0c4.487,0,9.224-0.088,14.076-0.262c52.943-1.896,72.58-18.389,73.39-19.09   c0.883-0.764,1.119-2.037,0.57-3.067c-0.549-1.029-1.733-1.546-2.864-1.235c-18.645,5.091-53.463,6.898-77.613,6.898   c-27.023,0-40.785-1.946-44.154-3.383c1.729-2.374,12.392-6.613,25.605-9.212c1.263-0.248,2.131-1.414,2.006-2.695   c-0.125-1.281-1.201-2.258-2.488-2.258C106.893,164.762,68.05,165.384,63.99,177.659z" id="XMLID_10_"/><path d="M241.148,160.673c-10.92,0-21.275,5.472-21.711,5.705c-1.01,0.541-1.522,1.699-1.245,2.811   c0.278,1.111,1.277,1.892,2.423,1.893c0.232,0.001,23.293,0.189,25.382,13.365c1.85,11.367-21.82,29.785-31.097,35.923   c-1.002,0.663-1.391,1.945-0.926,3.052c0.395,0.943,1.314,1.533,2.304,1.533c0.173,0,0.348-0.018,0.522-0.056   c2.202-0.47,53.855-11.852,48.394-41.927C261.862,164.541,250.278,160.673,241.148,160.673z" id="XMLID_11_"/><path d="M205.725,216.69c0.18-0.964-0.221-1.944-1.023-2.506l-12.385-8.675c-0.604-0.423-1.367-0.556-2.076-0.368   c-0.129,0.034-13.081,3.438-31.885,5.526c-7.463,0.837-15.822,1.279-24.175,1.279c-18.799,0-31.091-2.209-32.881-3.829   c-0.237-0.455-0.162-0.662-0.12-0.777c0.325-0.905,2.068-1.98,3.192-2.405c1.241-0.459,1.91-1.807,1.524-3.073   c-0.385-1.266-1.69-2.012-2.978-1.702c-12.424,2.998-18.499,7.191-18.057,12.461c0.785,9.343,22.428,14.139,40.725,15.408   c2.631,0.18,5.477,0.272,8.456,0.272c0.002,0,0.003,0,0.005,0c30.425,0,69.429-9.546,69.819-9.643   C204.818,218.423,205.544,217.654,205.725,216.69z" id="XMLID_12_"/><path d="M112.351,236.745c0.938-0.611,1.354-1.77,1.021-2.838c-0.332-1.068-1.331-1.769-2.453-1.755   c-1.665,0.044-16.292,0.704-17.316,10.017c-0.31,2.783,0.487,5.325,2.37,7.556c5.252,6.224,19.428,9.923,43.332,11.31   c2.828,0.169,5.7,0.254,8.539,0.254c30.39,0,50.857-9.515,51.714-9.92c0.831-0.393,1.379-1.209,1.428-2.127   c0.049-0.917-0.409-1.788-1.193-2.267l-15.652-9.555c-0.543-0.331-1.193-0.441-1.813-0.314c-0.099,0.021-10.037,2.082-25.035,4.119   c-2.838,0.385-6.392,0.581-10.562,0.581c-14.982,0-31.646-2.448-34.842-4.05C111.843,237.455,111.902,237.075,112.351,236.745z" id="XMLID_13_"/><path d="M133.681,290.018c69.61-0.059,106.971-12.438,114.168-20.228c2.548-2.757,2.823-5.366,2.606-7.07   c-0.535-4.194-4.354-6.761-4.788-7.04c-1.045-0.672-2.447-0.496-3.262,0.444c-0.813,0.941-0.832,2.314-0.016,3.253   c0.439,0.565,0.693,1.51-0.591,2.795c-2.877,2.687-31.897,10.844-80.215,13.294c-6.619,0.345-13.561,0.519-20.633,0.52   c-43.262,0-74.923-5.925-79.079-9.379c1.603-2.301,12.801-5.979,24.711-8.058c1.342-0.234,2.249-1.499,2.041-2.845   c-0.208-1.346-1.449-2.273-2.805-2.096c-0.336,0.045-1.475,0.115-2.796,0.195c-19.651,1.2-42.36,3.875-43.545,13.999   c-0.36,3.086,0.557,5.886,2.726,8.324c5.307,5.963,20.562,13.891,91.475,13.891C133.68,290.018,133.68,290.018,133.681,290.018z" id="XMLID_14_"/><path d="M261.522,271.985c-0.984-0.455-2.146-0.225-2.881,0.567c-0.103,0.11-10.568,11.054-42.035,17.48   c-12.047,2.414-34.66,3.638-67.211,3.638c-32.612,0-63.643-1.283-63.953-1.296c-1.296-0.063-2.405,0.879-2.581,2.155   c-0.177,1.276,0.645,2.477,1.897,2.775c0.323,0.077,32.844,7.696,77.31,7.696c21.327,0,42.08-1.733,61.684-5.151   c36.553-6.408,39.112-24.533,39.203-25.301C263.082,273.474,262.504,272.44,261.522,271.985z" id="XMLID_15_"/></g><path d="M0,0l34.135,375.465L204.8,409.6l170.665-34.135L409.6,0H0z M187.735,336.548L97.5,318.531L91.817,256H126.1l3.087,34.063    l24.412,4.869V68.265h34.135V336.548z M331.735,102.4H256v85.335h67.983L312.1,318.536l-90.235,18.017v-34.801l58.537-11.684    l6.2-68.198h-64.737V68.27h112.968L331.735,102.4z" transform="matrix(0.146484375 0 0 0.146484375 318 122)" id="L1_58"/><path d="m31.859375 448.058594 194.253906 63.941406 194.253907-63.941406 31.859374-448.058594h-452.226562zm339.757813-373.058594-4.277344 60h-222.246094l5.417969 77h211.480469l-12.878907 180.601562-123 41.101563-123.003906-41.101563-4.203125-60.601562h60l1.214844 16.492188 65.992187 21.902343 66.003907-21.898437 5.390624-76.496094h-203.097656l-13.800781-197zm0 0" transform="matrix(0.1171875 0 0 0.1171875 74.99999967773442 30)" id="L1_59"/><path d="M32,0l40.8,460.8L256,512l183.136-51.168L480,0H32z M392.768,150.688l-5.152,57.888l-15.52,173.568L256,414.208    l-0.064,0.032l-116-32.128l-8.128-90.752h56.832l4.224,47.104l63.072,17.024l0.064-0.064l63.136-17.024l8.608-78.432    l-198.656,0.544l-5.632-53.664l209.056-2.432l4.224-57.44l-218.88,0.608l-3.68-53.376H256h141.824L392.768,150.688z" transform="matrix(0.1171875 0 0 0.1171875 267 222)" id="L1_60"/><g transform="matrix(0.1171875 0 0 0.1171875 165 291)" id="L1_61"><path d="M252.985,0.004    c-20.882,0.097-40.823,1.878-58.369,4.983c-51.689,9.132-61.074,28.245-61.074,63.494v46.553h122.147v15.517H133.542H87.701    c-35.499,0-66.584,21.337-76.306,61.928c-11.215,46.526-11.712,75.56,0,124.141c8.683,36.161,29.418,61.927,64.917,61.927h41.997    V322.74c0-40.317,34.883-75.879,76.307-75.879h122.005c33.962,0,61.073-27.963,61.073-62.07V68.481    c0-33.102-27.926-57.969-61.073-63.494C295.638,1.494,273.866-0.093,252.985,0.004z M186.928,37.446    c12.617,0,22.92,10.472,22.92,23.347c0,12.83-10.303,23.205-22.92,23.205c-12.662,0-22.92-10.375-22.92-23.205    C164.008,47.917,174.266,37.446,186.928,37.446z" id="path1948_00000134962089881649523420000009399677824023126944_"/><path d="M392.927,130.551v54.24    c0,42.052-35.652,77.445-76.306,77.445H194.616c-33.419,0-61.074,28.602-61.074,62.07v116.31c0,33.102,28.785,52.573,61.074,62.07    c38.665,11.369,75.743,13.424,122.005,0c30.751-8.903,61.073-26.821,61.073-62.07v-46.553H255.689v-15.518h122.005h61.074    c35.499,0,48.728-24.761,61.074-61.927c12.753-38.262,12.21-75.057,0-124.141c-8.773-35.34-25.529-61.928-61.074-61.928H392.927z     M324.309,425.099c12.662,0,22.92,10.375,22.92,23.205c0,12.876-10.258,23.348-22.92,23.348c-12.617,0-22.92-10.472-22.92-23.348    C301.388,435.474,311.691,425.099,324.309,425.099z" id="path1950_00000083807539188134144630000011128538031068007323_"/></g><path d="M478.64,33.6C453.59,8.55,420.31,0.24,385.81,0.24H126.18c-33.9,0-68.28,8.34-92.82,32.88C8.06,58.42,1.43,91.52,0,125.95   v259.62c0,32.93,8.29,69.24,33.36,92.83c25.05,25.05,58.33,33.36,92.83,33.36h259.62c46.71,0,89.43-18.22,112.65-60.44   c10.79-19.61,13.54-43.7,13.54-65.75V126.43C512,93.11,503.99,57.46,478.64,33.6z M430.78,418.45   c-23.21-44.48-65.76-33.36-87.51-22.24c-1.94,0.96-3.87,2.41-5.8,3.38l0,0c-44.96,24.17-106.37,26.11-167.29,0   c-51.25-22.24-93.31-59.95-120.38-103.46c14.02,10.15,29.01,19.34,44.96,26.59c64.3,30.46,129.09,28.04,175.02,0   c-65.27-50.28-119.9-115.55-161.48-168.73c-7.74-9.19-14.99-19.34-21.27-29.5c50.28,45.45,129.08,102.99,157.61,118.94   c-59.95-63.34-113.13-141.66-110.72-139.24c94.76,95.24,182.27,149.39,182.27,149.39c3.39,1.45,5.8,2.9,7.74,4.35   c1.93-4.83,3.38-9.67,4.83-14.5c14.99-55.12-1.93-118.45-40.61-170.67c87.99,52.7,139.73,153.26,118.45,237.87   c-0.48,1.94-0.96,3.87-1.45,5.8C449.63,370.58,437.54,428.6,430.78,418.45z" transform="matrix(0.1171875 0 0 0.1171875 160 131)" id="L1_64"/><path d="M462,0H50C22.39,0,0,22.39,0,50v412c0,27.61,22.39,50,50,50h412c27.61,0,50-22.39,50-50V50C512,22.39,489.61,0,462,0z    M297,284.08h-64.22V467h-50.87V284.08H118V243h179V284.08z M462.88,434.57c-9.958,17.82-28.27,27.843-47.74,31.99   c-22.61,4.816-46.651,4.556-69.33,0.31c-11.11-2.08-20.73-5.21-28.87-9.38v-50.07c9.08,7.62,18.94,13.33,29.58,17.13   c10.64,3.81,21.39,5.71,32.241,5.71c9.602,0,20.289-1.184,28.559-6.49c5.673-3.621,9.469-9.333,9.47-16.188   c0.001-9.325-6.745-16.372-14.01-21.271c-10.64-7.175-22.874-11.833-34.66-16.74c-17.53-7.3-30.6-16.22-39.21-26.75   c-14.981-18.322-17.434-47.602-5.87-68.29c9.869-17.655,28.07-28.085,47.27-32.7c20.937-5.033,43.645-5.038,64.87-1.72   c9.02,1.41,17.34,3.57,24.96,6.49v46.78c-3.76-2.61-7.85-4.9-12.29-6.88c-8.755-3.904-18.204-6.544-27.7-7.83   c-9.499-1.27-19.489-1.491-28.871,0.71c-7.39,1.714-15.153,5.131-19.409,11.73c-1.77,2.77-2.66,5.87-2.66,9.31   c0,3.75,0.99,7.119,2.969,10.089c5.022,7.534,13.835,12.384,21.761,16.271c13.902,6.818,28.492,11.951,41.86,19.87   c12.964,7.652,24.492,18.33,30.13,32.54c2.71,6.83,4.07,14.78,4.07,23.85C470,415.56,467.63,426.07,462.88,434.57z" transform="matrix(0.1171875 0 0 0.1171875 63 228)" id="L1_66"/></defs><g fi:class="KUsePattern" opacity="0.3"><pattern id="pattern_L1_57" width="350" height="350" patternUnits="userSpaceOnUse"><use xlink:href="#L1_57" x="-350" y="-350"/><use xlink:href="#L1_57" x="0" y="-350"/><use xlink:href="#L1_57" x="350" y="-350"/><use xlink:href="#L1_57" x="-350" y="0"/><use xlink:href="#L1_57" x="0" y="0"/><use xlink:href="#L1_57" x="350" y="0"/><use xlink:href="#L1_57" x="-350" y="350"/><use xlink:href="#L1_57" x="0" y="350"/><use xlink:href="#L1_57" x="350" y="350"/></pattern><rect x="0" y="0" width="100%" height="100%" fill="url(#pattern_L1_57)"/></g><g fi:class="KUsePattern" opacity="0.3"><pattern id="pattern_L1_58" width="350" height="350" patternUnits="userSpaceOnUse"><use xlink:href="#L1_58" x="-350" y="-350"/><use xlink:href="#L1_58" x="0" y="-350"/><use xlink:href="#L1_58" x="350" y="-350"/><use xlink:href="#L1_58" x="-350" y="0"/><use xlink:href="#L1_58" x="0" y="0"/><use xlink:href="#L1_58" x="350" y="0"/><use xlink:href="#L1_58" x="-350" y="350"/><use xlink:href="#L1_58" x="0" y="350"/><use xlink:href="#L1_58" x="350" y="350"/></pattern><rect x="0" y="0" width="100%" height="100%" fill="url(#pattern_L1_58)"/></g><g fi:class="KUsePattern" opacity="0.3"><pattern id="pattern_L1_59" width="350" height="350" patternUnits="userSpaceOnUse"><use xlink:href="#L1_59" x="-350" y="-350"/><use xlink:href="#L1_59" x="0" y="-350"/><use xlink:href="#L1_59" x="350" y="-350"/><use xlink:href="#L1_59" x="-350" y="0"/><use xlink:href="#L1_59" x="0" y="0"/><use xlink:href="#L1_59" x="350" y="0"/><use xlink:href="#L1_59" x="-350" y="350"/><use xlink:href="#L1_59" x="0" y="350"/><use xlink:href="#L1_59" x="350" y="350"/></pattern><rect x="0" y="0" width="100%" height="100%" fill="url(#pattern_L1_59)"/></g><g fi:class="KUsePattern" opacity="0.3"><pattern id="pattern_L1_60" width="350" height="350" patternUnits="userSpaceOnUse"><use xlink:href="#L1_60" x="-350" y="-350"/><use xlink:href="#L1_60" x="0" y="-350"/><use xlink:href="#L1_60" x="350" y="-350"/><use xlink:href="#L1_60" x="-350" y="0"/><use xlink:href="#L1_60" x="0" y="0"/><use xlink:href="#L1_60" x="350" y="0"/><use xlink:href="#L1_60" x="-350" y="350"/><use xlink:href="#L1_60" x="0" y="350"/><use xlink:href="#L1_60" x="350" y="350"/></pattern><rect x="0" y="0" width="100%" height="100%" fill="url(#pattern_L1_60)"/></g><g fi:class="KUsePattern" opacity="0.3"><pattern id="pattern_L1_61" width="350" height="350" patternUnits="userSpaceOnUse"><use xlink:href="#L1_61" x="-350" y="-350"/><use xlink:href="#L1_61" x="0" y="-350"/><use xlink:href="#L1_61" x="350" y="-350"/><use xlink:href="#L1_61" x="-350" y="0"/><use xlink:href="#L1_61" x="0" y="0"/><use xlink:href="#L1_61" x="350" y="0"/><use xlink:href="#L1_61" x="-350" y="350"/><use xlink:href="#L1_61" x="0" y="350"/><use xlink:href="#L1_61" x="350" y="350"/></pattern><rect x="0" y="0" width="100%" height="100%" fill="url(#pattern_L1_61)"/></g><g fi:class="KUsePattern" opacity="0.3"><pattern id="pattern_L1_64" width="350" height="350" patternUnits="userSpaceOnUse"><use xlink:href="#L1_64" x="-350" y="-350"/><use xlink:href="#L1_64" x="0" y="-350"/><use xlink:href="#L1_64" x="350" y="-350"/><use xlink:href="#L1_64" x="-350" y="0"/><use xlink:href="#L1_64" x="0" y="0"/><use xlink:href="#L1_64" x="350" y="0"/><use xlink:href="#L1_64" x="-350" y="350"/><use xlink:href="#L1_64" x="0" y="350"/><use xlink:href="#L1_64" x="350" y="350"/></pattern><rect x="0" y="0" width="100%" height="100%" fill="url(#pattern_L1_64)"/></g><g fi:class="KUsePattern" opacity="0.3"><pattern id="pattern_L1_66" width="350" height="350" patternUnits="userSpaceOnUse"><use xlink:href="#L1_66" x="-350" y="-350"/><use xlink:href="#L1_66" x="0" y="-350"/><use xlink:href="#L1_66" x="350" y="-350"/><use xlink:href="#L1_66" x="-350" y="0"/><use xlink:href="#L1_66" x="0" y="0"/><use xlink:href="#L1_66" x="350" y="0"/><use xlink:href="#L1_66" x="-350" y="350"/><use xlink:href="#L1_66" x="0" y="350"/><use xlink:href="#L1_66" x="350" y="350"/></pattern><rect x="0" y="0" width="100%" height="100%" fill="url(#pattern_L1_66)"/></g></svg>